<svg width="64" height="88" viewBox="0 0 64 88" fill="none" xmlns="http://www.w3.org/2000/svg">
<path d="M17.4003 26.7143L1.1481 38.8026C0.946982 38.9522 0.78364 39.1467 0.671111 39.3707C0.558576 39.5946 0.499977 39.8418 0.499985 40.0924V85.5342C0.499985 85.9605 0.669334 86.3693 0.97078 86.6708L0.970787 86.6708C1.27224 86.9722 1.68109 87.1416 2.10741 87.1416H61.3483C61.7746 87.1416 62.1834 86.9722 62.4849 86.6708C62.7863 86.3693 62.9557 85.9605 62.9557 85.5342V40.0924C62.9557 39.8418 62.8971 39.5946 62.7845 39.3707C62.672 39.1467 62.5087 38.9522 62.3076 38.8026L46.0554 26.7143C47.5289 24.2785 48.3585 21.5047 48.4619 18.6545C48.571 15.6484 47.8684 12.6685 46.4278 10.0278C44.9872 7.38709 42.8618 5.18322 40.2751 3.64779C37.6885 2.11236 34.7359 1.30206 31.7278 1.30206C28.7198 1.30206 25.7672 2.11236 23.1805 3.64779C20.5938 5.18322 18.4685 7.38709 17.0279 10.0278C15.5873 12.6685 14.8847 15.6484 14.9938 18.6545C15.0972 21.5047 15.9268 24.2785 17.4003 26.7143ZM19.9914 24.787C18.8151 22.7442 18.1947 20.425 18.1975 18.0615V18.0606C18.1963 15.9635 18.6825 13.8949 19.6178 12.018C20.5532 10.1411 21.912 8.50724 23.587 7.24549C25.262 5.98375 27.2073 5.12863 29.2695 4.74762C31.3317 4.36662 33.4541 4.47017 35.4694 5.05009C37.4847 5.63002 39.3376 6.67044 40.8818 8.08924C42.4261 9.50804 43.6194 11.2664 44.3675 13.2254C45.1157 15.1845 45.3983 17.2906 45.1929 19.3776C45.0053 21.2846 44.4149 23.1279 43.4633 24.7864L32.687 16.7711L32.687 16.7711C32.4097 16.5648 32.0733 16.4534 31.7277 16.4534C31.3822 16.4534 31.0458 16.5648 30.7685 16.7711L30.7685 16.7711L19.9914 24.787ZM59.7407 83.9268H3.71485V40.9001L31.7278 20.0642L59.7408 40.9001L59.7407 83.9268Z" fill="#285A43" stroke="#285A43"/>
</svg>
